<?xml version="1.0" encoding="UTF-8" standalone="no"?>
<svg
   xmlns:dc="http://purl.org/dc/elements/1.1/"
   xmlns:cc="http://creativecommons.org/ns#"
   xmlns:rdf="http://www.w3.org/1999/02/22-rdf-syntax-ns#"
   xmlns:svg="http://www.w3.org/2000/svg"
   xmlns="http://www.w3.org/2000/svg"
   xmlns:sodipodi="http://sodipodi.sourceforge.net/DTD/sodipodi-0.dtd"
   xmlns:inkscape="http://www.inkscape.org/namespaces/inkscape"
   version="1.1"
   viewBox="0 -492 1544 1554"
   id="svg6"
   sodipodi:docname="uni2727_DejaVuSans.svg"
   width="1544"
   height="1554"
   inkscape:version="0.92.3 (2405546, 2018-03-11)">
  <metadata
     id="metadata12">
    <rdf:RDF>
      <cc:Work
         rdf:about="">
        <dc:format>image/svg+xml</dc:format>
        <dc:type
           rdf:resource="http://purl.org/dc/dcmitype/StillImage" />
        <dc:title></dc:title>
      </cc:Work>
    </rdf:RDF>
  </metadata>
  <defs
     id="defs10" />
  <sodipodi:namedview
     pagecolor="#ffffff"
     bordercolor="#666666"
     borderopacity="1"
     objecttolerance="10"
     gridtolerance="10"
     guidetolerance="10"
     inkscape:pageopacity="0"
     inkscape:pageshadow="2"
     inkscape:window-width="924"
     inkscape:window-height="504"
     id="namedview8"
     showgrid="false"
     fit-margin-top="0"
     fit-margin-left="0"
     fit-margin-right="0"
     fit-margin-bottom="0"
     inkscape:zoom="0.11523438"
     inkscape:cx="771"
     inkscape:cy="1053"
     inkscape:window-x="0"
     inkscape:window-y="44"
     inkscape:window-maximized="0"
     inkscape:current-layer="svg6" />
  <g
     transform="matrix(1,0,0,-1,-87,1033)"
     id="g4">
    <path
       d="M 357,748 Q 458,748 550,710 637,673 711,599 784,527 821.5,437.5 859,348 859,243 859,345 894.5,433.5 930,522 1007,599 q 70,72 161,111 91,38 193,38 -102,0 -193,38 -91,39 -161,111 -77,77 -112.5,165.5 Q 859,1151 859,1253 859,1148 821.5,1058.5 784,969 711,897 637,823 550,786 458,748 357,748 Z m -270,0 q 155,0 296,59 134,56 249,170 112,111 169.5,249 57.5,138 57.5,299 0,-157 55,-293 55,-136 172,-255 108,-110 249,-170 140,-59 296,-59 -156,0 -296,-59 Q 1194,629 1086,519 969,400 914,264 859,128 859,-29 859,132 801.5,270 744,408 632,519 517,633 383,689 242,748 87,748 Z"
       id="path2"
       inkscape:connector-curvature="0"
       style="fill:currentColor" />
  </g>
</svg>
