<?xml version="1.0" encoding="UTF-8" standalone="no"?>
<svg
   xmlns:dc="http://purl.org/dc/elements/1.1/"
   xmlns:cc="http://creativecommons.org/ns#"
   xmlns:rdf="http://www.w3.org/1999/02/22-rdf-syntax-ns#"
   xmlns:svg="http://www.w3.org/2000/svg"
   xmlns="http://www.w3.org/2000/svg"
   xmlns:sodipodi="http://sodipodi.sourceforge.net/DTD/sodipodi-0.dtd"
   xmlns:inkscape="http://www.inkscape.org/namespaces/inkscape"
   width="280"
   height="331.65854"
   viewBox="0 0 280 331.65854"
   version="1.1"
   preserveAspectRatio="xMidYMid"
   id="svg8"
   sodipodi:docname="svench.svg"
   inkscape:version="0.92.3 (2405546, 2018-03-11)">
  <metadata
     id="metadata14">
    <rdf:RDF>
      <cc:Work
         rdf:about="">
        <dc:format>image/svg+xml</dc:format>
        <dc:type
           rdf:resource="http://purl.org/dc/dcmitype/StillImage" />
        <dc:title></dc:title>
      </cc:Work>
    </rdf:RDF>
  </metadata>
  <defs
     id="defs12" />
  <sodipodi:namedview
     pagecolor="#ffffff"
     bordercolor="#666666"
     borderopacity="1"
     objecttolerance="10"
     gridtolerance="10"
     guidetolerance="10"
     inkscape:pageopacity="0"
     inkscape:pageshadow="2"
     inkscape:window-width="2101"
     inkscape:window-height="1154"
     id="namedview10"
     showgrid="false"
     inkscape:zoom="1.9583543"
     inkscape:cx="156.09519"
     inkscape:cy="135.89129"
     inkscape:window-x="1113"
     inkscape:window-y="605"
     inkscape:window-maximized="0"
     inkscape:current-layer="g6"
     fit-margin-top="12"
     fit-margin-left="12"
     fit-margin-right="12"
     fit-margin-bottom="12" />
  <g
     id="g6"
     transform="translate(12,12)">
    <path
       d="M 239.68157,40.706757 C 211.11327,-0.18188937 154.69089,-12.301439 113.89482,13.691039 L 42.246906,59.355535 C 22.676004,71.668003 9.1958152,91.653854 5.1119689,114.41213 1.6942052,133.37117 4.6982178,152.92858 13.648395,169.9879 7.5154968,179.29114 3.3325943,189.7413 1.3524912,200.70679 c -4.1233289,23.19531 1.2703786,47.07375 14.9634688,66.24465 28.574338,40.8925 84.99699,53.00683 125.78675,27.01572 l 71.64791,-45.6645 c 19.57228,-12.31103 33.05293,-32.29757 37.13494,-55.05659 3.41731,-18.95882 0.41565,-38.51584 -8.53011,-55.57715 6.1313,-9.30303 10.31244,-19.75276 12.29068,-30.71751 4.12606,-23.195371 -1.26789,-47.074863 -14.96347,-66.244653"
       id="path2"
       inkscape:connector-curvature="0"
       style="fill:#000000" />
    <path
       d="m 106.88866,270.84127 c -23.101474,6.0068 -47.497155,-3.03592 -61.102249,-22.6487 -8.238653,-11.53155 -11.484062,-25.896 -9.003315,-39.84942 0.415837,-2.26774 0.988097,-4.50399 1.712679,-6.69272 l 1.349701,-4.1156 3.671834,2.69693 c 8.47982,6.23073 17.96117,10.96797 28.03541,14.00754 l 2.66368,0.80812 -0.245375,2.65846 c -0.325475,3.78197 0.698577,7.55704 2.890645,10.65609 4.094361,5.90778 11.439466,8.634 18.396813,6.82819 1.557586,-0.41631 3.042203,-1.06878 4.402189,-1.9347 l 71.670958,-45.67274 c 3.54584,-2.23276 5.98951,-5.85349 6.73367,-9.97712 0.74287,-4.20555 -0.2348,-8.53324 -2.71342,-12.01102 -4.0968,-5.909 -11.44375,-8.63638 -18.40395,-6.83203 -1.55554,0.41634 -3.03818,1.06833 -4.39642,1.93332 l -27.34902,17.43427 c -4.49721,2.85942 -9.40505,5.01464 -14.55352,6.39102 -23.101278,6.00645 -47.496575,-3.03636 -61.101423,-22.64897 -8.238985,-11.5313 -11.484429,-25.8958 -9.003315,-39.84914 2.456042,-13.68933 10.565725,-25.710517 22.339301,-33.114096 L 134.54817,43.232365 c 4.49912,-2.864109 9.41047,-5.022045 14.56314,-6.398713 23.10113,-6.006293 47.49622,3.036369 61.10115,22.648699 8.23865,11.531547 11.48406,25.895994 9.00331,39.849412 -0.41763,2.267347 -0.98986,4.503477 -1.71268,6.692727 l -1.3497,4.11559 -3.66991,-2.6928 C 204.00426,101.21298 194.522,96.473573 184.44615,93.433693 l -2.66368,-0.808392 0.24538,-2.658459 c 0.32267,-3.781636 -0.70113,-7.555678 -2.89065,-10.655819 -4.09436,-5.907777 -11.43947,-8.633997 -18.39681,-6.828188 -1.55759,0.416308 -3.04221,1.068775 -4.40219,1.934699 L 84.667236,120.0922 c -3.545347,2.231 -5.987642,5.8515 -6.728443,9.97437 -0.74747,4.20535 0.228557,8.53459 2.708193,12.01239 4.096861,5.90894 11.443754,8.6363 18.403958,6.83204 1.557196,-0.41716 3.041596,-1.06958 4.401916,-1.9347 l 27.34544,-17.42768 c 4.49527,-2.86318 9.40289,-5.02032 14.55187,-6.39624 23.10128,-6.00645 47.49658,3.03636 61.10143,22.64898 8.23898,11.53129 11.48443,25.89579 9.00331,39.84913 -2.45765,13.69005 -10.56675,25.71226 -22.3393,33.11932 l -71.66492,45.67274 c -4.49911,2.86411 -9.41046,5.02205 -14.56313,6.39872"
       id="path4"
       inkscape:connector-curvature="0"
       style="fill:#ffff00" />
  </g>
</svg>
