<?xml version="1.0" encoding="UTF-8"?>
<svg width="1544" height="1554" version="1.1" viewBox="0 -492 1544 1554" xmlns="http://www.w3.org/2000/svg" xmlns:cc="http://creativecommons.org/ns#" xmlns:dc="http://purl.org/dc/elements/1.1/" xmlns:rdf="http://www.w3.org/1999/02/22-rdf-syntax-ns#">
<metadata>
<rdf:RDF>
<cc:Work rdf:about="">
<dc:format>image/svg+xml</dc:format>
<dc:type rdf:resource="http://purl.org/dc/dcmitype/StillImage"/>
<dc:title/>
</cc:Work>
</rdf:RDF>
</metadata>
<g transform="matrix(1,0,0,-1,-87,1033)">
<path d="m87 748q155 0 296 59 134 56 249 170 112 111 169.5 249t57.5 299q0-157 55-293t172-255q108-110 249-170 140-59 296-59-156 0-296-59-141-60-249-170-117-119-172-255t-55-293q0 161-57.5 299t-169.5 249q-115 114-249 170-141 59-296 59z" fill="currentColor"/>
</g>
</svg>
